PathFileType	4	(X/Y/Z)	/Users/itak/Documents/Research/Walk-IL/dataset/trc/00032_00004.trc
DataRate	CameraRate	NumFrames	NumMarkers	Units	OrigDataRate	OrigDataStartFrame	OrigNumFrames
100.000000	100.000000	4	53	mm	100.000000	677	774
Frame#	Time	RPSI			LPSI			L3			STRN			T10			C7			CLAV			RBAK			LBAK			LSHO			LUPA			LAEL			LAOL			LWTS			LWPS			LFRA			LIFD			LHPS			LHTS			RSHO			RUPA			RAEL			RAOL			RWTS			RWPS			RFRA			RIFD			RHTS			RHPS			RBHD			LFHD			RFHD			LBHD			LHIP			RHIP			RASI			LASI			LKNE			LTHI			LANK			LTIP			LTOE			LMT1			LMT5			LHEE			RKNE			RTHI			RANK			RTIP			RTOE			RMT1			RMT5			RHEE			
		X1	Y1	Z1	X2	Y2	Z2	X3	Y3	Z3	X4	Y4	Z4	X5	Y5	Z5	X6	Y6	Z6	X7	Y7	Z7	X8	Y8	Z8	X9	Y9	Z9	X10	Y10	Z10	X11	Y11	Z11	X12	Y12	Z12	X13	Y13	Z13	X14	Y14	Z14	X15	Y15	Z15	X16	Y16	Z16	X17	Y17	Z17	X18	Y18	Z18	X19	Y19	Z19	X20	Y20	Z20	X21	Y21	Z21	X22	Y22	Z22	X23	Y23	Z23	X24	Y24	Z24	X25	Y25	Z25	X26	Y26	Z26	X27	Y27	Z27	X28	Y28	Z28	X29	Y29	Z29	X30	Y30	Z30	X31	Y31	Z31	X32	Y32	Z32	X33	Y33	Z33	X34	Y34	Z34	X35	Y35	Z35	X36	Y36	Z36	X37	Y37	Z37	X38	Y38	Z38	X39	Y39	Z39	X40	Y40	Z40	X41	Y41	Z41	X42	Y42	Z42	X43	Y43	Z43	X44	Y44	Z44	X45	Y45	Z45	X46	Y46	Z46	X47	Y47	Z47	X48	Y48	Z48	X49	Y49	Z49	X50	Y50	Z50	X51	Y51	Z51	X52	Y52	Z52	X53	Y53	Z53	

678	6.77	434.4925231933594	1075.04541015625	928.9794311523438	461.6302795410156	1062.629272460938	1089.808227539062	457.3515319824219	1130.833740234375	1021.543579101562	238.9836578369141	1319.070434570312	1039.216918945312	486.47705078125	1273.997802734375	1034.17431640625	433.3829650878906	1541.236083984375	1055.894287109375	280.7901916503906	1444.447875976562	1045.941162109375	492.5564880371094	1406.608154296875	973.099609375	452.7633056640625	1498.874389648438	1151.59130859375	351.2216491699219	1502.1845703125	1224.143798828125	385.1546325683594	1381.195678710938	1305.636108398438	391.8932495117188	1167.230102539062	1341.557861328125	447.5411682128906	1150.130615234375	1253.005859375	283.8226623535156	922.5158081054688	1289.069091796875	356.2464599609375	902.0401000976562	1336.338745117188	370.610107421875	1052.663696289062	1351.848266601562	239.9411468505859	740.5877075195312	1272.539794921875	313.4407348632812	815.789306640625	1335.735473632812	252.4697723388672	831.965087890625	1302.089721679688	362.6524047851562	1525.689575195312	880.2293701171875	384.4939575195312	1460.92431640625	809.0858764648438	456.2748718261719	1205.07080078125	770.3876342773438	448.4367980957031	1169.932861328125	863.3435668945312	335.7440795898438	940.2598876953125	772.0880737304688	405.4527893066406	929.19873046875	712.665771484375	450.1289978027344	1128.47998046875	747.2864990234375	320.5148315429688	755.9310913085938	789.1331787109375	305.4230651855469	831.9630737304688	755.2405395507812	365.7515869140625	826.1024169921875	710.2774658203125	314.3655395507812	1727.298706054688	1112.385131835938	163.9953765869141	1682.181762695312	960.534912109375	146.9491119384766	1683.80712890625	1057.440795898438	334.4457092285156	1720.276611328125	969.4375	379.1859436035156	958.7145385742188	1207.455200195312	303.2449645996094	963.5809936523438	840.537353515625	215.6854553222656	998.8345947265625	928.9000244140625	256.1314697265625	1007.221130371094	1162.05126953125	250.9579467773438	528.7440185546875	1181.40673828125	307.5067443847656	658.64697265625	1210.666625976562	338.1951599121094	40.65078353881836	1176.789672851562	320.0569458007812	286.3174438476562	1192.701904296875	110.6513519287109	40.53604888916016	1135.63232421875	168.8714599609375	48.59763717651367	1113.718383789062	217.6661529541016	37.29458618164062	1211.12451171875	400.4380798339844	47.25678253173828	1118.037963867188	243.0718231201172	524.6946411132812	873.8189697265625	263.6361083984375	799.3079833984375	846.7586059570312	551.1957397460938	128.8276519775391	799.6693725585938	302.7921447753906	406.5730590820312	852.9757080078125	357.8109130859375	43.29024124145508	895.1480712890625	422.0945739746094	67.91130065917969	908.6278076171875	415.4926452636719	66.13420867919922	813.1288452148438	610.691162109375	151.7489013671875	831.0521850585938	
679	6.78	432.4559631347656	1075.83154296875	930.9681396484375	459.2112426757812	1063.11328125	1091.84521484375	454.9302978515625	1131.425903320312	1023.752624511719	236.1394348144531	1319.348999023438	1040.944702148438	483.7178649902344	1274.583984375	1036.824340820312	430.1725158691406	1541.6962890625	1058.709838867188	277.7463073730469	1444.704467773438	1047.960083007812	489.816162109375	1407.276000976562	975.9780883789062	449.2025146484375	1499.250610351562	1154.443969726562	347.3543395996094	1502.382690429688	1226.59130859375	380.9193115234375	1381.33984375	1308.101928710938	387.4201354980469	1167.393676757812	1343.985229492188	443.3092956542969	1150.226684570312	1255.583740234375	279.4839477539062	922.5328979492188	1291.366333007812	351.9113464355469	902.180908203125	1338.861450195312	366.150390625	1052.82861328125	1354.29443359375	235.7750701904297	740.6041870117188	1275.151611328125	309.1929016113281	815.9049072265625	1338.278076171875	248.2359924316406	832.0502319335938	1304.572265625	360.1830444335938	1526.304565429688	882.7203979492188	382.3409423828125	1461.590942382812	811.6238403320312	454.4487609863281	1205.740478515625	773.2151489257812	446.388427734375	1170.689331054688	866.1821899414062	334.4647216796875	940.6923217773438	774.93017578125	404.2055358886719	929.7486572265625	715.5850830078125	448.4682922363281	1129.13037109375	750.1764526367188	319.0382385253906	756.4810791015625	791.8297729492188	304.353271484375	832.2586669921875	758.1949462890625	364.7538146972656	826.531005859375	713.2883911132812	311.3808288574219	1727.628784179688	1114.98828125	161.9450988769531	1683.309814453125	962.0180053710938	144.1751098632812	1684.834838867188	1058.776733398438	332.4359741210938	1720.781494140625	972.1768188476562	376.6923828125	958.7844848632812	1208.994506835938	301.5773620605469	964.340087890625	841.8300170898438	213.7930603027344	999.3148193359375	930.1348876953125	253.569580078125	1007.117614746094	1163.391479492188	250.22998046875	528.4484252929688	1182.014038085938	306.1478881835938	658.5236206054688	1211.478271484375	338.1695861816406	40.62796020507812	1176.792114257812	319.7662353515625	286.2191162109375	1192.985107421875	110.648323059082	40.54117584228516	1135.628540039062	168.8629150390625	48.58183670043945	1113.704956054688	217.6675720214844	37.30878448486328	1211.1025390625	400.4366760253906	47.27806091308594	1118.040771484375	240.0236968994141	525.7081298828125	874.9810791015625	261.7505493164062	800.1000366210938	847.719482421875	544.051025390625	126.4317398071289	804.35986328125	299.0207214355469	407.4130554199219	854.4116821289062	346.3872985839844	43.71026992797852	894.0309448242188	410.8864440917969	66.85310363769531	909.3999633789062	406.5635070800781	66.93992614746094	813.7404174804688	603.3641967773438	147.5538024902344	837.4058227539062	
680	6.79	430.4796447753906	1076.630737304688	932.8762817382812	456.8260803222656	1063.627563476562	1093.8076171875	452.5609436035156	1132.031494140625	1025.879760742188	233.3606262207031	1319.617919921875	1042.608276367188	481.0243530273438	1275.183959960938	1039.3701171875	427.0044555664062	1542.170776367188	1061.397705078125	274.7415161132812	1444.98388671875	1049.902587890625	487.1116638183594	1407.963989257812	978.738037109375	445.7042846679688	1499.643676757812	1157.169921875	343.5584716796875	1502.602416992188	1228.931030273438	376.8040466308594	1381.51513671875	1310.456176757812	383.1035766601562	1167.578857421875	1346.284057617188	439.2279357910156	1150.36572265625	1258.020263671875	275.3269958496094	922.6019287109375	1293.54541015625	347.7330322265625	902.3387451171875	1341.20947265625	361.8515930175781	1053.015991210938	1356.59912109375	231.7783966064453	740.65625	1277.569091796875	305.1150512695312	816.0274658203125	1340.6220703125	244.1627502441406	832.1453247070312	1306.874145507812	357.7073059082031	1526.92578125	885.1070556640625	380.1827697753906	1462.264038085938	814.0548706054688	452.6265869140625	1206.423583984375	775.8997802734375	444.4044494628906	1171.455200195312	868.8757934570312	333.1229858398438	941.1686401367188	777.71044921875	402.8529357910156	930.31640625	718.3853149414062	446.7959899902344	1129.787963867188	752.9225463867188	317.1335144042969	757.11376953125	794.308349609375	303.1871948242188	832.623046875	761.1060791015625	363.6248779296875	826.99169921875	716.2093505859375	308.4796142578125	1727.96435546875	1117.490112304688	159.9520568847656	1684.461181640625	963.4485473632812	141.4755706787109	1685.896606445312	1060.059814453125	330.4735717773438	1721.289184570312	974.8161010742188	374.2296142578125	958.8768310546875	1210.448486328125	300.0215454101562	965.111328125	843.0158081054688	211.9955902099609	999.7908935546875	931.2567749023438	251.0300598144531	1007.0283203125	1164.590209960938	249.6828155517578	528.1537475585938	1182.568725585938	304.9175415039062	658.4163818359375	1212.227172851562	338.1533813476562	40.61050796508789	1176.79150390625	319.5867004394531	286.1437683105469	1193.234008789062	110.6517181396484	40.54549026489258	1135.6259765625	168.8593292236328	48.57183837890625	1113.69482421875	217.6707000732422	37.32070922851562	1211.084838867188	400.425537109375	47.28075408935547	1118.031860351562	237.3123321533203	526.7067260742188	876.0449829101562	259.9955139160156	800.8837890625	848.4734497070312	536.2926025390625	123.4186782836914	809.1516723632812	295.4090881347656	408.1710205078125	855.8465576171875	334.6152954101562	44.14894104003906	893.4664306640625	399.28662109375	65.74646759033203	910.5482177734375	397.1517944335938	67.35173797607422	814.8274536132812	595.43896484375	142.7333068847656	843.6930541992188	
681	6.8	428.5667114257812	1077.429443359375	934.7077026367188	454.4676818847656	1064.16552734375	1095.698608398438	450.2431640625	1132.643676757812	1027.927978515625	230.6344909667969	1319.874145507812	1044.197875976562	478.3930969238281	1275.793334960938	1041.813110351562	423.8780822753906	1542.65576171875	1063.960693359375	271.7770080566406	1445.280883789062	1051.761840820312	484.4473876953125	1408.664794921875	981.3825073242188	442.2611694335938	1500.049072265625	1159.773071289062	339.8257446289062	1502.8349609375	1231.158813476562	372.7995910644531	1381.714111328125	1312.703979492188	378.93896484375	1167.779296875	1348.464111328125	435.3026733398438	1150.544311523438	1260.33056640625	271.3466491699219	922.712890625	1295.5859375	343.7052917480469	902.5092163085938	1343.385131835938	357.7077331542969	1053.219970703125	1358.76806640625	227.9549865722656	740.7459106445312	1279.76904296875	301.1927490234375	816.156982421875	1342.758911132812	240.2442169189453	832.2484130859375	1308.974365234375	355.2284240722656	1527.549438476562	887.3895263671875	378.0284423828125	1462.937255859375	816.378662109375	450.8116455078125	1207.115356445312	778.4475708007812	442.4892883300781	1172.226196289062	871.4317016601562	331.7076416015625	941.68212890625	780.4114990234375	401.405517578125	930.8988647460938	721.06298828125	445.1140747070312	1130.44921875	755.5250244140625	314.9085083007812	757.8088989257812	796.6041870117188	301.9323120117188	833.0548095703125	763.9481201171875	362.3756408691406	827.484375	719.027099609375	305.6604309082031	1728.300415039062	1119.891479492188	158.0075378417969	1685.630981445312	964.8204345703125	138.8584289550781	1686.990600585938	1061.290405273438	328.556640625	1721.791870117188	977.3547973632812	371.7943420410156	958.993896484375	1211.825073242188	298.5639343261719	965.8843994140625	844.103271484375	210.2815246582031	1000.254028320312	932.2694091796875	248.5215454101562	1006.949829101562	1165.658081054688	249.3073883056641	527.8642578125	1183.074340820312	303.8143310546875	658.325439453125	1212.921508789062	338.1457824707031	40.59770584106445	1176.788940429688	319.5137939453125	286.087890625	1193.448974609375	110.6620635986328	40.54473114013672	1135.628662109375	168.8607025146484	48.56655502319336	1113.688720703125	217.6746215820312	37.33038330078125	1211.07177734375	400.4000549316406	47.25784683227539	1118.005859375	234.9214172363281	527.678955078125	877.0120849609375	258.3584899902344	801.6539916992188	849.052490234375	527.9500122070312	119.8626098632812	814.0115356445312	291.94384765625	408.8324890136719	857.2869873046875	322.5664367675781	44.62214279174805	893.4926147460938	387.3648986816406	64.63138580322266	912.0960693359375	387.2980041503906	67.39205169677734	816.3897094726562	586.9517211914062	137.3977661132812	849.8699951171875	
